<svg xmlns="http://www.w3.org/2000/svg" xmlns:xlink="http://www.w3.org/1999/xlink" viewBox="0 0 299.98 99.21"><defs><style>.cls-1{fill:#ed1c24;}.cls-2{fill:#ee3e80;}.cls-3{fill:#fdb933;}.cls-4{fill:#f7941d;}.cls-5{fill:url(#linear-gradient);}.cls-6{fill:url(#linear-gradient-2);}.cls-7{fill:url(#linear-gradient-3);}</style><linearGradient id="linear-gradient" x1="34.37" y1="59.52" x2="68.74" y2="59.52" gradientUnits="userSpaceOnUse"><stop offset="0" stop-color="#221e67"/><stop offset="0.09" stop-color="#3f1e6b"/><stop offset="0.2" stop-color="#5e1f70"/><stop offset="1" stop-color="#b63f81"/></linearGradient><linearGradient id="linear-gradient-2" x1="51.55" y1="19.84" x2="51.55" y2="59.52" gradientUnits="userSpaceOnUse"><stop offset="0.1" stop-color="#f04e23"/><stop offset="0.14" stop-color="#f05223"/><stop offset="0.72" stop-color="#f5821f"/><stop offset="1" stop-color="#f7941d"/></linearGradient><linearGradient id="linear-gradient-3" x1="34.37" y1="79.36" x2="68.74" y2="79.36" gradientUnits="userSpaceOnUse"><stop offset="0.05" stop-color="#af2a47"/><stop offset="0.18" stop-color="#bc254b"/><stop offset="0.5" stop-color="#d71c54"/><stop offset="0.78" stop-color="#e71659"/><stop offset="1" stop-color="#ed145b"/></linearGradient></defs><g id="Layer_2" data-name="Layer 2"><g id="Layer_1-2" data-name="Layer 1"><path class="cls-1" d="M147.73,79.37V39.09c-1.1.28-5.76,1.68-8.29,4.33a5.27,5.27,0,0,0-1.64,3.45v32.5Zm37-35.31c-3.68-3.72-7.91-4.35-13.23-4.35a24.57,24.57,0,0,0-11.58,2.91,3.08,3.08,0,0,0-1.36,2.52v5.24a40.26,40.26,0,0,1,11.29-2c2.94,0,5.46.35,7.09,1.69,1.89,1.56,2.12,4.14,2.12,5.39,0,.44,0,.72,0,.72l0,.16-.15,0s-4.38-.49-9-.48-8.61.85-11.37,3a12.16,12.16,0,0,0-4.33,9.29,11.52,11.52,0,0,0,4.12,9.18c2.27,1.88,6.55,2.77,10.12,2.76a22.4,22.4,0,0,0,8.08-1.27,7.36,7.36,0,0,0,2.28-1.27l.26-.25v2h9.4V56.54C188.45,51.2,187.5,46.86,184.74,44.06ZM179,66.15a6.62,6.62,0,0,1-3.95,6.28,11.88,11.88,0,0,1-4.53,1,8,8,0,0,1-4.21-1.12A4.92,4.92,0,0,1,164.14,68a5.5,5.5,0,0,1,.75-2.88c1.11-1.75,3.33-2.84,7-2.92l.84,0a21.2,21.2,0,0,1,6.34.78Zm16.57-32.71a5.45,5.45,0,0,1,1.48-3.76c2.58-2.66,7.44-3.83,8.55-4.13V79.37h-10Zm36.67,6.27c-11.87,0-21,8.92-21,20.42s9,20.13,20.87,20.13,21.31-8.85,21.31-20.42S244.22,39.71,232.28,39.71Zm0,31.85c-6.05,0-10.92-5.23-10.92-11.72,0-6.64,4.58-11.29,10.77-11.29s11,5,11,11.58S238.62,71.56,232.28,71.56Zm60.51-30.25a6.3,6.3,0,0,0-3.46,3.08c-4.33-4-9.4-4.55-13.66-4.55-9,0-17.71,6.54-17.71,18.73s8.89,18.15,17.71,18.15c5,0,9.62-1.17,13.74-4.7,0,4.93-1.33,7.49-2.8,9-2.05,2.13-5.21,3.16-9.55,3.16a27.17,27.17,0,0,1-6.32-1V88a3.3,3.3,0,0,0,1.91,3,24.1,24.1,0,0,0,8.67,1.54,19.6,19.6,0,0,0,13.6-5.37c3.38-3.3,5.06-8.89,5.06-16.09V39.84A26.09,26.09,0,0,0,292.79,41.31Zm-14,26.82c-6.1,0-10.51-4.26-10.51-9.84s3.75-10,10.07-10c6,0,10.94,3.82,10.94,10.28C289.33,64.3,285,68.13,278.83,68.13ZM106,79.36H88.57V44.42a5.52,5.52,0,0,1,1.2-4c2.82-2.91,7.31-3.21,8.87-3.42V70H106c8.91,0,15.38-7.67,15.38-17V52.8C121.39,43.44,115.28,37,106,37h-7.7a13.08,13.08,0,0,1-8.78-3.25,7,7,0,0,1-2.11-4.66V27.48H106c15.56,0,26.32,10.6,26.32,25.47v.15c0,14.86-10.76,26.26-26.32,26.26"/><polygon class="cls-2" points="0 79.36 34.37 99.21 34.37 59.52 0 79.36"/><polygon class="cls-3" points="0 0 0 39.68 34.37 19.84 0 0"/><polygon class="cls-4" points="34.37 19.84 34.37 19.84 0 39.68 34.37 59.52 34.37 19.84"/><polygon class="cls-5" points="68.74 79.36 68.74 39.68 34.37 59.52 68.74 79.36"/><polygon class="cls-6" points="34.37 59.52 34.37 59.52 68.74 39.68 34.37 19.84 34.37 59.52"/><polygon class="cls-7" points="68.74 79.36 68.74 79.36 34.37 59.52 34.37 99.21 68.74 79.36"/></g></g></svg>